<svg width="24" height="24" viewBox="0 0 24 24" fill="none" xmlns="http://www.w3.org/2000/svg">
<g clip-path="url(#clip0_0_12)">
<path d="M5 19.251V20.251C4.99183 20.4421 5.04443 20.6309 5.15026 20.7903C5.25608 20.9496 5.40968 21.0714 5.589 21.138L12.5 23.251V14.418L6.027 12.045C5.89883 12.0101 5.76408 12.007 5.63443 12.036C5.50479 12.0649 5.38416 12.1251 5.283 12.2111C5.18184 12.2972 5.10319 12.4067 5.05388 12.53C5.00457 12.6534 4.98607 12.7869 5 12.919V14.763" stroke="#337F81" stroke-width="1.5" stroke-linecap="round" stroke-linejoin="round"/>
<path d="M20.013 19.1V20.257C20.022 20.4482 19.9699 20.6372 19.8641 20.7967C19.7584 20.9562 19.6046 21.0779 19.425 21.144L12.5 23.251V14.418L18.986 12.045C19.1142 12.0101 19.2489 12.007 19.3786 12.036C19.5082 12.0649 19.6288 12.1251 19.73 12.2111C19.8312 12.2972 19.9098 12.4067 19.9591 12.53C20.0084 12.6534 20.0269 12.7869 20.013 12.919V14.907" stroke="#337F81" stroke-width="1.5" stroke-linecap="round" stroke-linejoin="round"/>
<path d="M6.487 18.358C6.487 18.858 5.924 19.258 5.236 19.251C3.858 19.245 2.745 18.435 2.75 17.441V16.541C2.75 15.548 3.875 14.748 5.25 14.754C5.939 14.754 6.495 15.162 6.493 15.654L6.487 18.358Z" stroke="#337F81" stroke-width="1.5" stroke-linecap="round" stroke-linejoin="round"/>
<path d="M17.757 18.358C17.757 18.858 18.32 19.258 19.01 19.251C20.39 19.245 21.505 18.435 21.5 17.441V16.541C21.5 15.548 20.373 14.748 18.993 14.754C18.304 14.754 17.746 15.162 17.749 15.654L17.757 18.358Z" stroke="#337F81" stroke-width="1.5" stroke-linecap="round" stroke-linejoin="round"/>
<path d="M12.512 9.001C14.7902 9.001 16.637 7.15417 16.637 4.876C16.637 2.59782 14.7902 0.750999 12.512 0.750999C10.2338 0.750999 8.387 2.59782 8.387 4.876C8.387 7.15417 10.2338 9.001 12.512 9.001Z" stroke="#337F81" stroke-width="1.5" stroke-linecap="round" stroke-linejoin="round"/>
</g>
<defs>
<clipPath id="clip0_0_12">
<rect width="24" height="24" fill="white"/>
</clipPath>
</defs>
</svg>
