<svg width="24" height="24" viewBox="0 0 24 24" fill="none" xmlns="http://www.w3.org/2000/svg">
<g clip-path="url(#clip0_0_40)">
<path d="M4.49899 20.25C5.94874 20.25 7.12399 19.0747 7.12399 17.625C7.12399 16.1753 5.94874 15 4.49899 15C3.04925 15 1.87399 16.1753 1.87399 17.625C1.87399 19.0747 3.04925 20.25 4.49899 20.25Z" stroke="#337F81" stroke-width="1.5" stroke-linecap="round" stroke-linejoin="round"/>
<path d="M8.24899 23.25C7.8865 22.5703 7.34612 22.002 6.6856 21.6057C6.02508 21.2093 5.26928 21 4.49899 21C3.72871 21 2.9729 21.2093 2.31239 21.6057C1.65187 22.002 1.11148 22.5703 0.748993 23.25" stroke="#337F81" stroke-width="1.5" stroke-linecap="round" stroke-linejoin="round"/>
<path d="M19.499 20.25C20.9487 20.25 22.124 19.0747 22.124 17.625C22.124 16.1753 20.9487 15 19.499 15C18.0492 15 16.874 16.1753 16.874 17.625C16.874 19.0747 18.0492 20.25 19.499 20.25Z" stroke="#337F81" stroke-width="1.5" stroke-linecap="round" stroke-linejoin="round"/>
<path d="M23.249 23.25C22.8865 22.5703 22.3461 22.002 21.6856 21.6057C21.0251 21.2093 20.2693 21 19.499 21C18.7287 21 17.9729 21.2093 17.3124 21.6057C16.6519 22.002 16.1115 22.5703 15.749 23.25" stroke="#337F81" stroke-width="1.5" stroke-linecap="round" stroke-linejoin="round"/>
<path d="M11.999 6C13.4487 6 14.624 4.82475 14.624 3.375C14.624 1.92525 13.4487 0.75 11.999 0.75C10.5492 0.75 9.37399 1.92525 9.37399 3.375C9.37399 4.82475 10.5492 6 11.999 6Z" stroke="#337F81" stroke-width="1.5" stroke-linecap="round" stroke-linejoin="round"/>
<path d="M15.248 8.25C14.8472 7.77945 14.3491 7.40154 13.7879 7.14238C13.2268 6.88322 12.6161 6.74901 11.998 6.74901C11.3799 6.74901 10.7692 6.88322 10.208 7.14238C9.64692 7.40154 9.14875 7.77945 8.74799 8.25" stroke="#337F81" stroke-width="1.5" stroke-linecap="round" stroke-linejoin="round"/>
<path d="M9.04999 19.707C10.9652 20.4372 13.0832 20.4308 14.994 19.689" stroke="#337F81" stroke-width="1.5" stroke-linecap="round" stroke-linejoin="round"/>
<path d="M6.34799 6C5.52702 6.7689 4.87266 7.69816 4.42543 8.73023C3.9782 9.7623 3.74763 10.8752 3.74799 12C3.74799 12.253 3.76299 12.5 3.78599 12.75" stroke="#337F81" stroke-width="1.5" stroke-linecap="round" stroke-linejoin="round"/>
<path d="M20.211 12.75C20.233 12.502 20.249 12.25 20.249 12C20.2495 10.8752 20.019 9.76221 19.5718 8.73012C19.1245 7.69802 18.4701 6.76879 17.649 6" stroke="#337F81" stroke-width="1.5" stroke-linecap="round" stroke-linejoin="round"/>
</g>
<defs>
<clipPath id="clip0_0_40">
<rect width="24" height="24" fill="white"/>
</clipPath>
</defs>
</svg>
